<?xml version="1.0" encoding="UTF-8" standalone="no" ?>
<!DOCTYPE svg PUBLIC "-//W3C//DTD SVG 1.1//EN" "http://www.w3.org/Graphics/SVG/1.1/DTD/svg11.dtd">
<svg xmlns="http://www.w3.org/2000/svg" xmlns:xlink="http://www.w3.org/1999/xlink" version="1.1" width="640" height="640" viewBox="0 0 640 640" xml:space="preserve">
<desc>Created with Fabric.js 4.6.0</desc>
<defs>
</defs>
<g transform="matrix(2.39 0 0 2.39 455.91 480.56)" id="u4P9C9JjdbQgFye-pb5aD"  >
<g style="" vector-effect="non-scaling-stroke"   >
		<g transform="matrix(1 0 0 1 -97.25 -84.22)" id="zTE1bZNOlZzKYFj3xQfhc"  >
<path style="stroke: rgb(171,167,167); stroke-width: 1; stroke-dasharray: none; stroke-linecap: butt; stroke-dashoffset: 0; stroke-linejoin: miter; stroke-miterlimit: 4; fill: none; fill-rule: nonzero; opacity: 1;" vector-effect="non-scaling-stroke"  transform=" translate(0, 0)" d="M -27.94367 -61.44586 C -52.51405 -66.12593 -47.83398 -22.835260000000005 -45.49394 2.905149999999999 C -43.1539 28.64555 -26.773650000000004 63.7461 -1.0332500000000024 63.7461 C 24.70715 63.7461 43.42744 27.47553 45.76748 2.905149999999999 C 48.10752 -21.66523 51.61757 -75.48607000000001 28.217209999999998 -61.44586" stroke-linecap="round" />
</g>
		<g transform="matrix(1 0 0 1 -97.12 -85.62)" id="gbLVp_FnxD2B_Fi-2j-tG"  >
<path style="stroke: rgb(171,167,167); stroke-width: 1; stroke-dasharray: none; stroke-linecap: butt; stroke-dashoffset: 0; stroke-linejoin: miter; stroke-miterlimit: 4; fill: rgb(171,167,167); fill-rule: nonzero; opacity: 1;" vector-effect="non-scaling-stroke"  transform=" translate(0, 0)" d="M 25.83749 -64.56215 C 26.51014 -66.35587 38.77841 -61.20577 39.33707 -58.41247 C 39.89573 -55.61917 48.661269999999995 -33.078739999999996 40.840039999999995 6.0274 C 33.018809999999995 45.13355 11.709279999999996 61.23216 -2.5049900000000065 59.825 C -16.719260000000006 58.417840000000005 -35.074540000000006 44.95814 -42.089310000000005 4.091920000000002 C -44.57343 -10.379879999999998 -41.970650000000006 -21.209449999999997 -44.072190000000006 -32.2838 C -44.79088000000001 -36.07102 -41.76312000000001 -36.16727 -42.90963000000001 -44.63995 C -43.285920000000004 -47.42073 -39.93442000000001 -49.20897 -40.392630000000004 -52.260819999999995 C -40.618750000000006 -53.76687999999999 -40.313230000000004 -54.03328 -37.56385 -56.94994 C -34.81447 -59.8666 -33.80416 -60.122519999999994 -32.90296 -60.25908 C -26.671210000000002 -61.20339 -24.55543 -61.22417 -31.6527 -60.25908 C -38.74997 -59.293989999999994 -46.343109999999996 -54.207899999999995 -46.69686 -30.97009 C -47.0506 -7.732279999999999 -45.29981 -4.864369999999997 -45.29981 -4.864369999999997 C -45.29981 -4.864369999999997 -46.58833 -12.474519999999998 -45.29981 0.1267200000000024 C -44.01129 12.727960000000003 -44.26235 8.210220000000003 -44.07219 10.032690000000002 C -43.92744 11.419910000000002 -43.57481 2.4898500000000023 -43.78078 4.091940000000002 C -45.08507 14.23666 -39.830330000000004 33.7455 -29.384149999999998 47.8831 C -22.05888 57.79693 -11.770909999999997 64.93289 -1.160899999999998 64.93289 C 24.579500000000003 64.93289 43.29979 28.66232 45.63983 4.091940000000001 C 47.979870000000005 -20.47844 46.28069000000001 -48.170249999999996 43.525490000000005 -55.42036 C 40.77029 -62.670460000000006 25.164850000000005 -62.76841 25.837500000000006 -64.56213 z" stroke-linecap="round" />
</g>
		<g transform="matrix(0.91 0 0 0.95 -97.25 -87.13)" id="ACpvjjnuyk_i5zRKhcOSD"  >
<path style="stroke: rgb(208,202,202); stroke-width: 1; stroke-dasharray: none; stroke-linecap: butt; stroke-dashoffset: 0; stroke-linejoin: miter; stroke-miterlimit: 4; fill: none; fill-rule: nonzero; opacity: 1;" vector-effect="non-scaling-stroke"  transform=" translate(0, 0)" d="M -27.94367 -61.44586 C -52.51405 -66.12593 -47.83398 -22.835260000000005 -45.49394 2.905149999999999 C -43.1539 28.64555 -26.773650000000004 63.7461 -1.0332500000000024 63.7461 C 24.70715 63.7461 43.42744 27.47553 45.76748 2.905149999999999 C 48.10752 -21.66523 51.61757 -75.48607000000001 28.217209999999998 -61.44586" stroke-linecap="round" />
</g>
		<g transform="matrix(1 0 0 1 -35.37 -54.83)" id="TPNFpV-kN7YL3cz-8EnHL"  >
<path style="stroke: rgb(0,0,0); stroke-width: 1; stroke-dasharray: none; stroke-linecap: butt; stroke-dashoffset: 0; stroke-linejoin: miter; stroke-miterlimit: 4; fill: rgb(255,255,255); fill-opacity: 0; fill-rule: nonzero; opacity: 1;" vector-effect="non-scaling-stroke"  transform=" translate(0, 0)" d="M -58.76954 34.85818 C -53.79688 59.099869999999996 -13.42969 66.08348 11.612060000000007 61.853609999999996 C 36.65381000000001 57.62374 41.65172000000001 53.354679999999995 50.54216000000001 43.04831 C 59.43260000000001 32.74194 63.41236000000001 4.506059999999998 50.54216000000001 -6.024099999999997 C 37.67196000000001 -16.55426 10.434820000000009 -10.088049999999997 11.612060000000007 -41.693 C 12.789310000000008 -73.29795 56.392250000000004 -60.413289999999996 56.392250000000004 -60.413289999999996" stroke-linecap="round" />
</g>
		<g transform="matrix(1 0 0 1 -35 -50.48)" id="1gJuBSdmWvPhYKR1rWTit"  >
<path style="stroke: rgb(0,0,0); stroke-width: 1; stroke-dasharray: none; stroke-linecap: butt; stroke-dashoffset: 0; stroke-linejoin: miter; stroke-miterlimit: 4; fill: rgb(255,255,255); fill-opacity: 0; fill-rule: nonzero; opacity: 1;" vector-effect="non-scaling-stroke"  transform=" translate(0, 0)" d="M -62.71519 30.86577 C -57.74253 55.10746 -17.50745 66.385 9.084690000000002 62.15513 C 35.67683 57.92526 44.16311 52.10581 53.05355 41.799440000000004 C 61.94399 31.493070000000003 68.17243 0.9316100000000063 55.689820000000005 -11.536539999999995 C 43.20722000000001 -24.004689999999997 13.721400000000003 -19.864059999999995 15.286240000000006 -45.655049999999996 C 16.851080000000007 -71.44605 55.85226000000001 -60.88697 55.85226000000001 -60.88697" stroke-linecap="round" />
</g>
		<g transform="matrix(1.1 0 0 1.04 -36.19 -53.19)" id="5AuuMwtMY5KbBtwL3BZNf"  >
<path style="stroke: rgb(0,0,0); stroke-width: 1; stroke-dasharray: none; stroke-linecap: butt; stroke-dashoffset: 0; stroke-linejoin: miter; stroke-miterlimit: 4; fill: rgb(0,0,0); fill-rule: nonzero; opacity: 1;" vector-effect="non-scaling-stroke"  transform=" translate(0, 0)" d="M -57.28272 32.02345 C -57.28272 30.176119999999997 -52.63444 28.636669999999995 -52.9278 32.02345 C -53.221149999999994 35.41023 -41.617189999999994 57.67323 -11.988520000000001 58.28901 C -6.466360000000001 58.40378 -5.956120000000001 59.444509999999994 -1.651880000000002 59.40454 C 0.46273999999999793 59.384899999999995 6.553069999999998 58.39675 11.191369999999997 58.28901 C 14.221009999999998 58.21864 17.082649999999997 57.549209999999995 19.749119999999998 56.923759999999994 C 29.47433 54.642599999999995 36.60326 49.771209999999996 39.81719 47.946999999999996 C 42.45632 46.44904 45.829049999999995 41.64147 45.829049999999995 41.64147 C 45.829049999999995 41.64147 49.511289999999995 35.628569999999996 50.96460999999999 32.235699999999994 C 54.74500999999999 23.410129999999995 55.14637999999999 16.986549999999994 54.645219999999995 13.530049999999996 C 52.59175 -0.6328500000000048 53.89814 1.5979599999999952 48.911139999999996 -5.175600000000003 C 43.924139999999994 -11.949160000000003 27.056329999999996 -15.378570000000003 22.949379999999994 -18.149570000000004 C 18.842439999999996 -20.920570000000005 6.521599999999996 -29.006980000000006 12.241989999999994 -47.08200000000001 C 17.962379999999996 -65.15702 40.11053999999999 -64.32379 50.96460999999999 -59.089670000000005 C 61.81867999999999 -53.855560000000004 58.885149999999996 -57.31042000000001 52.43137999999999 -56.69464000000001 C 45.97760999999999 -56.078860000000006 16.495609999999992 -65.48726 14.784389999999988 -41.082730000000005 C 13.073159999999987 -16.678210000000004 25.085129999999985 -14.507360000000006 41.08838999999999 -14.237440000000007 C 57.09165999999999 -13.967520000000006 58.982939999999985 14.237729999999992 57.222819999999984 18.856059999999992 C 56.380589999999984 21.065969999999993 55.253869999999985 34.51794999999999 48.911149999999985 43.25372999999999 C 41.99868999999998 52.77420999999999 29.713819999999984 57.56526999999999 25.785139999999984 58.289019999999994 C 18.251589999999986 59.676849999999995 17.813209999999984 60.710719999999995 12.241999999999985 61.344759999999994 C -2.251810000000015 62.994229999999995 -14.810950000000014 62.35840999999999 -19.790640000000018 61.344759999999994 C -26.684440000000016 59.94147999999999 -51.844960000000015 51.68147999999999 -55.951900000000016 35.979139999999994 C -60.05884000000002 20.276799999999994 -57.282710000000016 33.870799999999996 -57.282710000000016 32.023469999999996 z" stroke-linecap="round" />
</g>
		<g transform="matrix(1 0 0 0.75 -125.09 -146.96)" id="cLlDy4yMC6zydBOkwQ-mz"  >
<path style="stroke: rgb(220,9,189); stroke-width: 0; stroke-dasharray: none; stroke-linecap: butt; stroke-dashoffset: 0; stroke-linejoin: miter; stroke-miterlimit: 4; fill: rgb(0,0,0); fill-rule: nonzero; opacity: 1;" vector-effect="non-scaling-stroke"  transform=" translate(0, 0)" d="M 0 -5.85009 C 3.22925 -5.85009 5.85009 -3.22925 5.85009 0 C 5.85009 3.22925 3.22925 5.85009 0 5.85009 C -3.22925 5.85009 -5.85009 3.22925 -5.85009 0 C -5.85009 -3.22925 -3.22925 -5.85009 0 -5.85009 z" stroke-linecap="round" />
</g>
		<g transform="matrix(1 0 0 0.75 -68.53 -148.42)" id="j1Joqf6Cy58Z946-kISgi"  >
<path style="stroke: rgb(220,9,189); stroke-width: 0; stroke-dasharray: none; stroke-linecap: butt; stroke-dashoffset: 0; stroke-linejoin: miter; stroke-miterlimit: 4; fill: rgb(0,0,0); fill-rule: nonzero; opacity: 1;" vector-effect="non-scaling-stroke"  transform=" translate(0, 0)" d="M 0 -5.85009 C 3.22925 -5.85009 5.85009 -3.22925 5.85009 0 C 5.85009 3.22925 3.22925 5.85009 0 5.85009 C -3.22925 5.85009 -5.85009 3.22925 -5.85009 0 C -5.85009 -3.22925 -3.22925 -5.85009 0 -5.85009 z" stroke-linecap="round" />
</g>
		<g transform="matrix(1 0 0 1 -97.88 -39.1)" id="5LT5lyAZHkhZE76kEFz5X"  >
<path style="stroke: rgb(0,0,0); stroke-width: 1; stroke-dasharray: none; stroke-linecap: butt; stroke-dashoffset: 0; stroke-linejoin: miter; stroke-miterlimit: 4; fill: rgb(0,0,0); fill-rule: nonzero; opacity: 1;" vector-effect="non-scaling-stroke"  transform=" translate(0, 0)" d="M -39.32888 -17.52091 C -37.715979999999995 -19.13381 -33.054069999999996 -19.77897 -33.054069999999996 -17.52091 C -33.054069999999996 -15.26285 -21.30119 14.59111 0.6342900000000071 13.30079 C 22.569770000000005 12.01047 32.94352000000001 -15.58542 33.588680000000004 -17.52091 C 34.23384 -19.45639 40.025960000000005 -18.06832 39.3808 -16.13284 C 38.735640000000004 -14.197360000000002 24.50526 16.973169999999996 0.63429 18.908659999999998 C -23.23668 20.844139999999996 -40.94178 -15.908000000000001 -39.32888 -17.52091 z" stroke-linecap="round" />
</g>
		<g transform="matrix(1 0 0 1 -97.28 -19.82)" id="SOQ_vLRQtdxuhCzdOE5n7"  >
<path style="stroke: rgb(0,0,0); stroke-width: 1; stroke-dasharray: none; stroke-linecap: butt; stroke-dashoffset: 0; stroke-linejoin: miter; stroke-miterlimit: 4; fill: rgb(0,0,0); fill-rule: nonzero; opacity: 1;" vector-effect="non-scaling-stroke"  transform=" translate(0, 0)" d="M -5.53808 0.2036 C -2.0027299999999997 4.7490499999999995 2.643020000000001 4.16627 2.643020000000001 4.16627 C 2.643020000000001 4.16627 6.493590000000001 1.60352 6.696020000000001 -2.2426399999999997 C 6.89845 -6.0887899999999995 -3.406129999999999 -3.0523599999999997 -3.406129999999999 -3.0523599999999997 C -3.406129999999999 -3.0523599999999997 -9.073429999999998 -4.34187 -5.538079999999999 0.20359000000000016 z" stroke-linecap="round" />
</g>
		<g transform="matrix(1 0 0 1 -4.38 -78.05)" id="aMZNLR0tnVn7Gt4uJst73"  >
<path style="stroke: rgb(0,0,0); stroke-width: 1; stroke-dasharray: none; stroke-linecap: butt; stroke-dashoffset: 0; stroke-linejoin: miter; stroke-miterlimit: 4; fill: rgb(0,0,0); fill-rule: nonzero; opacity: 1;" vector-effect="non-scaling-stroke"  transform=" translate(0, 0)" d="M -15.80119 -11.27596 L -13.13057 1.1869500000000013 L 0.81602 9.198820000000001 L 13.57566 10.682500000000001 L 15.801179999999999 11.275970000000001 L 1.557859999999998 4.7477800000000006 L -7.195850000000002 1.1869500000000004 L -13.130570000000002 -5.192869999999999 z" stroke-linecap="round" />
</g>
		<g transform="matrix(1.35 0 0 1.35 26.16 -111.91)" id="B7bCH3FHAhCsD6IHBv6NT"  >
<path style="stroke: rgb(174,159,28); stroke-width: 0; stroke-dasharray: none; stroke-linecap: butt; stroke-dashoffset: 0; stroke-linejoin: miter; stroke-miterlimit: 4; fill: rgb(171,167,167); fill-rule: nonzero; opacity: 1;" vector-effect="non-scaling-stroke"  transform=" translate(0, 0)" d="M 0 -6.08309 C 3.35787 -6.08309 6.08309 -3.35787 6.08309 0 C 6.08309 3.35787 3.35787 6.08309 0 6.08309 C -3.35787 6.08309 -6.08309 3.35787 -6.08309 0 C -6.08309 -3.35787 -3.35787 -6.08309 0 -6.08309 z" stroke-linecap="round" />
</g>
		<g transform="matrix(1 0 0 1 26.16 -111.91)" id="2mzILs0GqWY5Tx0yVGtO1"  >
<path style="stroke: rgb(124,125,124); stroke-width: 1; stroke-dasharray: none; stroke-linecap: butt; stroke-dashoffset: 0; stroke-linejoin: miter; stroke-miterlimit: 4; fill: none; fill-rule: nonzero; opacity: 1;" vector-effect="non-scaling-stroke"  transform=" translate(0, 0)" d="M 0 -3.93175 C 2.17032 -3.93175 3.93175 -2.17033 3.93175 0 C 3.93175 2.17032 2.17033 3.93175 0 3.93175 C -2.17032 3.93175 -3.93175 2.17033 -3.93175 0 C -3.93175 -2.17032 -2.17033 -3.93175 0 -3.93175 z" stroke-linecap="round" />
</g>
</g>
</g>
<g transform="matrix(1 0 0 1 137.84 135.77)" id="OrL-dliVK__anOTasj_DC"  >
<path style="stroke: rgb(0,0,0); stroke-width: 1; stroke-dasharray: none; stroke-linecap: butt; stroke-dashoffset: 0; stroke-linejoin: miter; stroke-miterlimit: 4; fill: rgb(255,255,255); fill-opacity: 0; fill-rule: nonzero; opacity: 1;" vector-effect="non-scaling-stroke"  transform=" translate(0, 0)" d="M 0 0" stroke-linecap="round" />
</g>
</svg>